<svg xmlns="http://www.w3.org/2000/svg" width="28" height="28.116" viewBox="0 0 28 28.116"><defs><style>.a{fill:#fff;stroke:#fff;stroke-width:4px;}</style></defs><path class="a" d="M634.494,533.665a.735.735,0,0,1-.222.539.717.717,0,0,1-.525.223.738.738,0,0,1-.537-.234l-7.24-7.313a9.035,9.035,0,0,1-6.118,2.3,9.143,9.143,0,0,1-4.694-1.254A9.377,9.377,0,1,1,629.2,519.8a9.088,9.088,0,0,1-2.172,6l7.263,7.336a.71.71,0,0,1,.207.526Zm-12.846-6.176a7.611,7.611,0,0,0,1.658-.6,8.275,8.275,0,0,0,1.448-.926,7.258,7.258,0,0,0,1.216-1.231,8.691,8.691,0,0,0,.923-1.464,7.682,7.682,0,0,0,.595-1.664,7.844,7.844,0,1,0-11.594,5.029,7.651,7.651,0,0,0,3.958,1.067,7.749,7.749,0,0,0,1.795-.212Z" transform="translate(-608.495 -508.312)"/></svg>